<?xml version="1.0" encoding="UTF-8"?>
<svg xmlns="http://www.w3.org/2000/svg" xmlns:xlink="http://www.w3.org/1999/xlink" width="300px" height="187px" viewBox="0 0 299 187" version="1.1">
<defs>
<clipPath id="clip1">
  <path d="M 57.074219 80.53125 L 241.5625 80.53125 L 241.5625 106.621094 L 57.074219 106.621094 Z M 57.074219 80.53125 "/>
</clipPath>
</defs>
<g id="surface1">
<g clip-path="url(#clip1)" clip-rule="nonzero">
<path style=" stroke:none;fill-rule:nonzero;fill:rgb(100%,100%,100%);fill-opacity:1;" d="M 66.339844 80.53125 C 69.980469 80.53125 72.777344 81.570312 74.71875 83.648438 C 76.660156 85.730469 77.628906 88.71875 77.628906 92.613281 C 77.628906 97.125 76.578125 100.578125 74.480469 102.980469 C 72.375 105.382812 69.359375 106.582031 65.421875 106.582031 C 64.332031 106.582031 63.007812 106.5625 61.457031 106.527344 C 59.898438 106.484375 58.453125 106.421875 57.121094 106.339844 L 57.082031 106.339844 L 57.28125 98.617188 L 57.082031 80.6875 L 57.121094 80.6875 Z M 65.941406 103.902344 C 68.652344 103.902344 70.738281 103.011719 72.1875 101.234375 C 73.636719 99.464844 74.359375 96.816406 74.359375 93.296875 C 74.359375 86.570312 71.605469 83.210938 66.101562 83.210938 C 64.425781 83.210938 62.496094 83.265625 60.3125 83.371094 L 60.15625 98.335938 L 60.273438 103.660156 C 61.097656 103.742188 62.089844 103.800781 63.25 103.835938 C 64.40625 103.878906 65.300781 103.902344 65.941406 103.902344 Z M 90.675781 86.414062 L 97.660156 106.339844 L 94.667969 106.339844 L 94.1875 104.179688 L 93.148438 101.21875 L 88.402344 101.179688 L 84.171875 101.21875 L 83.097656 104.023438 L 82.539062 106.339844 L 79.585938 106.339844 L 87.246094 86.414062 Z M 88.640625 98.820312 L 92.3125 98.78125 L 89 89.332031 L 88.761719 89.332031 L 85.132812 98.78125 Z M 108.472656 86.210938 C 110.09375 86.210938 111.714844 86.53125 113.339844 87.171875 L 112.820312 90.132812 L 112.34375 90.253906 C 111.597656 89.667969 110.890625 89.230469 110.226562 88.949219 C 109.5625 88.671875 108.871094 88.535156 108.152344 88.535156 C 107.007812 88.535156 106.101562 88.832031 105.441406 89.429688 C 104.773438 90.03125 104.441406 90.722656 104.441406 91.492188 C 104.441406 92.269531 104.765625 92.894531 105.417969 93.375 C 106.070312 93.855469 107.074219 94.390625 108.433594 94.976562 C 109.628906 95.511719 110.578125 95.992188 111.28125 96.417969 C 111.988281 96.84375 112.597656 97.410156 113.117188 98.113281 C 113.636719 98.824219 113.898438 99.6875 113.898438 100.699219 C 113.898438 101.738281 113.617188 102.707031 113.058594 103.597656 C 112.5 104.496094 111.679688 105.214844 110.601562 105.757812 C 109.527344 106.304688 108.246094 106.582031 106.753906 106.582031 C 105.824219 106.582031 104.847656 106.46875 103.820312 106.238281 C 102.796875 106.015625 101.847656 105.675781 100.972656 105.222656 L 101.332031 102.058594 L 101.726562 101.898438 C 102.472656 102.648438 103.34375 103.226562 104.335938 103.636719 C 105.339844 104.050781 106.265625 104.261719 107.113281 104.261719 C 108.230469 104.261719 109.148438 103.960938 109.867188 103.355469 C 110.585938 102.757812 110.945312 102.035156 110.945312 101.179688 C 110.945312 100.378906 110.617188 99.738281 109.964844 99.257812 C 109.316406 98.78125 108.296875 98.21875 106.914062 97.578125 C 105.769531 97.070312 104.832031 96.605469 104.097656 96.175781 C 103.371094 95.75 102.753906 95.179688 102.246094 94.472656 C 101.742188 93.765625 101.488281 92.90625 101.488281 91.894531 C 101.488281 90.828125 101.773438 89.867188 102.34375 89.015625 C 102.917969 88.160156 103.730469 87.476562 104.777344 86.972656 C 105.828125 86.464844 107.0625 86.210938 108.472656 86.210938 Z M 136.191406 86.414062 L 136.074219 100.101562 L 136.152344 106.339844 L 133.199219 106.339844 L 133.320312 100.339844 L 133.277344 97.617188 L 122.46875 97.65625 L 122.425781 100.101562 L 122.507812 106.339844 L 119.554688 106.339844 L 119.675781 100.339844 L 119.554688 86.414062 L 122.546875 86.414062 L 122.46875 94.976562 L 127.851562 95.015625 L 133.277344 94.976562 L 133.199219 86.414062 Z M 152.667969 95.976562 C 155.621094 96.566406 157.097656 98.136719 157.097656 100.699219 C 157.097656 102.621094 156.355469 104.0625 154.867188 105.019531 C 153.375 105.980469 151.195312 106.464844 148.320312 106.464844 C 146.589844 106.464844 144.929688 106.421875 143.332031 106.339844 L 143.453125 100.339844 L 143.332031 86.414062 L 149.558594 86.371094 C 151.554688 86.371094 153.105469 86.789062 154.210938 87.628906 C 155.3125 88.472656 155.863281 89.667969 155.863281 91.214844 C 155.863281 92.363281 155.582031 93.335938 155.023438 94.136719 C 154.464844 94.9375 153.679688 95.550781 152.667969 95.976562 Z M 152.710938 91.574219 C 152.710938 90.585938 152.390625 89.867188 151.75 89.414062 C 151.113281 88.960938 150.089844 88.734375 148.679688 88.734375 L 146.246094 88.734375 L 146.207031 94.894531 L 149.757812 95.015625 C 150.742188 94.804688 151.480469 94.421875 151.976562 93.871094 C 152.464844 93.328125 152.710938 92.5625 152.710938 91.574219 Z M 148.679688 104.179688 C 150.410156 104.179688 151.734375 103.878906 152.652344 103.277344 C 153.570312 102.679688 154.027344 101.792969 154.027344 100.621094 C 154.027344 99.660156 153.707031 98.914062 153.070312 98.378906 C 152.429688 97.84375 151.460938 97.484375 150.15625 97.296875 L 146.207031 97.335938 L 146.167969 100.101562 L 146.246094 104.0625 C 147.070312 104.140625 147.882812 104.179688 148.679688 104.179688 Z M 170.347656 86.171875 C 173.246094 86.171875 175.472656 87.027344 177.023438 88.734375 C 178.582031 90.441406 179.363281 92.855469 179.363281 95.976562 C 179.363281 99.363281 178.527344 101.984375 176.863281 103.835938 C 175.203125 105.691406 172.832031 106.621094 169.746094 106.621094 C 166.875 106.621094 164.652344 105.746094 163.082031 104 C 161.515625 102.25 160.730469 99.765625 160.730469 96.535156 C 160.730469 93.226562 161.566406 90.671875 163.242188 88.867188 C 164.917969 87.070312 167.285156 86.171875 170.347656 86.171875 Z M 170.066406 88.695312 C 167.964844 88.695312 166.402344 89.292969 165.371094 90.492188 C 164.351562 91.695312 163.84375 93.589844 163.84375 96.175781 C 163.84375 98.953125 164.347656 100.964844 165.359375 102.222656 C 166.367188 103.472656 167.910156 104.101562 169.984375 104.101562 C 172.113281 104.101562 173.695312 103.488281 174.734375 102.261719 C 175.769531 101.03125 176.289062 99.113281 176.289062 96.496094 C 176.289062 93.800781 175.777344 91.828125 174.75 90.574219 C 173.726562 89.320312 172.167969 88.695312 170.066406 88.695312 Z M 192.6875 86.414062 L 199.667969 106.339844 L 196.675781 106.339844 L 196.199219 104.179688 L 195.160156 101.21875 L 190.414062 101.179688 L 186.183594 101.21875 L 185.105469 104.023438 L 184.546875 106.339844 L 181.597656 106.339844 L 189.257812 86.414062 Z M 190.652344 98.820312 L 194.324219 98.78125 L 191.011719 89.332031 L 190.773438 89.332031 L 187.140625 98.78125 Z M 213.746094 98.296875 C 215.367188 100.777344 217.164062 103.222656 219.132812 105.621094 L 219.09375 106.019531 C 217.976562 106.371094 217.058594 106.570312 216.339844 106.621094 L 215.820312 106.300781 C 213.800781 103.234375 212.269531 100.820312 211.230469 99.058594 L 207.484375 99.097656 L 207.484375 100.101562 L 207.5625 106.339844 L 204.609375 106.339844 L 204.730469 100.339844 L 204.609375 86.414062 L 211.394531 86.371094 C 213.492188 86.371094 215.109375 86.863281 216.242188 87.851562 C 217.371094 88.839844 217.9375 90.265625 217.9375 92.136719 C 217.9375 93.496094 217.570312 94.710938 216.84375 95.777344 C 216.105469 96.84375 215.078125 97.683594 213.746094 98.296875 Z M 207.5625 88.8125 L 207.523438 96.617188 L 211.273438 96.738281 C 213.640625 96.070312 214.820312 94.617188 214.820312 92.375 C 214.820312 91.199219 214.476562 90.320312 213.785156 89.734375 C 213.09375 89.148438 212.042969 88.828125 210.632812 88.773438 Z M 232.179688 86.25 C 235.210938 86.25 237.53125 87.066406 239.144531 88.695312 C 240.75 90.320312 241.554688 92.65625 241.554688 95.695312 C 241.554688 99.191406 240.675781 101.871094 238.921875 103.742188 C 237.164062 105.609375 234.652344 106.542969 231.382812 106.542969 C 230.449219 106.542969 229.339844 106.523438 228.054688 106.488281 C 226.761719 106.445312 225.542969 106.394531 224.398438 106.339844 L 224.519531 100.339844 L 224.398438 86.414062 Z M 231.859375 104.101562 C 233.988281 104.101562 235.628906 103.453125 236.792969 102.15625 C 237.945312 100.867188 238.523438 98.914062 238.523438 96.296875 C 238.523438 93.738281 237.976562 91.84375 236.886719 90.613281 C 235.796875 89.386719 234.148438 88.773438 231.941406 88.773438 C 230.636719 88.773438 229.105469 88.828125 227.351562 88.933594 L 227.269531 100.101562 L 227.308594 103.859375 C 228.082031 103.914062 228.894531 103.96875 229.742188 104.023438 C 230.597656 104.074219 231.300781 104.101562 231.859375 104.101562 Z M 231.859375 104.101562 "/>
</g>
<path style="fill-rule:nonzero;fill:rgb(100%,100%,100%);fill-opacity:1;stroke-width:1;stroke-linecap:butt;stroke-linejoin:miter;stroke:rgb(100%,100%,100%);stroke-opacity:1;stroke-miterlimit:4;" d="M 179.270049 100.36954 L 179.270049 37.04071 L 6.150793 37.04071 L 6.150793 210.160494 L 179.270049 210.160494 L 179.270049 146.831664 L 176.164771 146.831664 L 176.164771 207.04926 L 9.256071 207.04926 L 9.256071 40.146784 L 176.164771 40.146784 L 176.164771 100.36954 Z M 179.270049 100.36954 " transform="matrix(0.754763,0,0,0.757085,0.0568258,-0.000000000000006305)"/>
</g>
</svg>
