<svg xmlns="http://www.w3.org/2000/svg" version="1.1" xmlns:xlink="http://www.w3.org/1999/xlink" xmlns:svgjs="http://svgjs.dev/svgjs" width="2000" height="1247" viewBox="0 0 2000 1247"><g transform="matrix(1,0,0,1,-1.2121212121212466,0.504858299595071)"><svg viewBox="0 0 396 247" data-background-color="#e6b17e" preserveAspectRatio="xMidYMid meet" height="1247" width="2000" xmlns="http://www.w3.org/2000/svg" xmlns:xlink="http://www.w3.org/1999/xlink"><g id="tight-bounds" transform="matrix(1,0,0,1,0.2400000000000091,-0.09999999999999432)"><svg viewBox="0 0 395.52 247.2" height="247.2" width="395.52"><g><svg></svg></g><g><svg viewBox="0 0 395.52 247.2" height="247.2" width="395.52"><g transform="matrix(1,0,0,1,75.54432,106.36716622837369)"><svg viewBox="0 0 244.43135999999998 34.46566754325259" height="34.46566754325259" width="244.43135999999998"><g><svg viewBox="0 0 244.43135999999998 34.46566754325259" height="34.46566754325259" width="244.43135999999998"><g><svg viewBox="0 0 244.43135999999998 34.46566754325259" height="34.46566754325259" width="244.43135999999998"><g><svg viewBox="0 0 244.43135999999998 34.46566754325259" height="34.46566754325259" width="244.43135999999998"><g><svg viewBox="0 0 244.43135999999998 34.46566754325259" height="34.46566754325259" width="244.43135999999998"><g><svg viewBox="0 0 244.43135999999998 34.46566754325259" height="34.46566754325259" width="244.43135999999998"><g transform="matrix(1,0,0,1,0,0)"><svg width="244.43135999999998" viewBox="4.650000095367432 -32.25 231.1800079345703 32.599998474121094" height="34.46566754325259" data-palette-color="#000000"><path d="M16.25-32.25Q23.1-32.25 26.75-28.35 30.4-24.45 30.4-17.15L30.4-17.15Q30.4-8.7 26.45-4.2 22.5 0.3 15.1 0.3L15.1 0.3Q13.05 0.3 10.13 0.23 7.2 0.15 4.7 0L4.7 0 4.65 0 4.9-9.65 4.65-32.05 4.7-32.05 16.25-32.25ZM15.75-3.05Q20.85-3.05 23.58-6.38 26.3-9.7 26.3-16.3L26.3-16.3Q26.3-28.9 15.95-28.9L15.95-28.9Q12.8-28.9 8.7-28.7L8.7-28.7 8.5-10 8.65-3.35Q10.2-3.2 12.38-3.13 14.55-3.05 15.75-3.05L15.75-3.05ZM46.75-24.9L55.5 0 51.75 0 51.15-2.7 49.85-6.4 43.9-6.45 38.6-6.4 37.25-2.9 36.55 0 32.85 0 42.45-24.9 46.75-24.9ZM44.2-9.4L48.8-9.45 44.65-21.25 44.35-21.25 39.8-9.45 44.2-9.4ZM69.05-25.15Q72.1-25.15 75.15-23.95L75.15-23.95 74.5-20.25 73.9-20.1Q72.5-21.2 71.25-21.73 70-22.25 68.65-22.25L68.65-22.25Q66.5-22.25 65.25-21.13 64-20 64-18.55L64-18.55Q64-17.1 65.22-16.2 66.45-15.3 69-14.2L69-14.2Q71.25-13.2 72.57-12.4 73.9-11.6 74.87-10.28 75.85-8.95 75.85-7.05L75.85-7.05Q75.85-5.1 74.8-3.43 73.75-1.75 71.72-0.73 69.7 0.3 66.9 0.3L66.9 0.3Q65.15 0.3 63.22-0.13 61.3-0.55 59.65-1.4L59.65-1.4 60.1-5.35 60.6-5.55Q62-4.15 63.87-3.38 65.75-2.6 67.35-2.6L67.35-2.6Q69.45-2.6 70.8-3.73 72.15-4.85 72.15-6.45L72.15-6.45Q72.15-7.95 70.92-8.85 69.7-9.75 67.1-10.95L67.1-10.95Q64.95-11.9 63.57-12.7 62.2-13.5 61.25-14.83 60.3-16.15 60.3-18.05L60.3-18.05Q60.3-20.05 61.37-21.65 62.45-23.25 64.42-24.2 66.4-25.15 69.05-25.15L69.05-25.15ZM103.79-24.9L103.64-7.8 103.74 0 100.04 0 100.19-7.5 100.14-10.9 86.59-10.85 86.54-7.8 86.64 0 82.94 0 83.09-7.5 82.94-24.9 86.69-24.9 86.59-14.2 93.34-14.15 100.14-14.2 100.04-24.9 103.79-24.9ZM124.44-12.95Q129.99-11.85 129.99-7.05L129.99-7.05Q129.99-3.45 127.19-1.65 124.39 0.15 118.99 0.15L118.99 0.15Q115.74 0.15 112.74 0L112.74 0 112.89-7.5 112.74-24.9 120.54-24.95Q124.29-24.95 126.37-23.38 128.44-21.8 128.44-18.9L128.44-18.9Q128.44-16.75 127.39-15.25 126.34-13.75 124.44-12.95L124.44-12.95ZM124.49-18.45Q124.49-20.3 123.29-21.15 122.09-22 119.44-22L119.44-22 116.39-22 116.34-14.3 120.79-14.15Q122.64-14.55 123.57-15.58 124.49-16.6 124.49-18.45L124.49-18.45ZM119.44-2.7Q122.69-2.7 124.42-3.83 126.14-4.95 126.14-7.15L126.14-7.15Q126.14-8.95 124.94-9.95 123.74-10.95 121.29-11.3L121.29-11.3 116.34-11.25 116.29-7.8 116.39-2.85Q117.94-2.7 119.44-2.7L119.44-2.7ZM146.59-25.2Q152.04-25.2 154.96-22 157.89-18.8 157.89-12.95L157.89-12.95Q157.89-6.6 154.76-3.13 151.64 0.35 145.84 0.35L145.84 0.35Q140.44 0.35 137.49-2.93 134.54-6.2 134.54-12.25L134.54-12.25Q134.54-18.45 137.69-21.83 140.84-25.2 146.59-25.2L146.59-25.2ZM146.24-22.05Q142.29-22.05 140.36-19.8 138.44-17.55 138.44-12.7L138.44-12.7Q138.44-7.5 140.34-5.15 142.24-2.8 146.14-2.8L146.14-2.8Q150.14-2.8 152.09-5.1 154.04-7.4 154.04-12.3L154.04-12.3Q154.04-17.35 152.11-19.7 150.19-22.05 146.24-22.05L146.24-22.05ZM174.59-24.9L183.34 0 179.59 0 178.99-2.7 177.69-6.4 171.74-6.45 166.44-6.4 165.09-2.9 164.39 0 160.69 0 170.29-24.9 174.59-24.9ZM172.04-9.4L176.64-9.45 172.49-21.25 172.19-21.25 167.64-9.45 172.04-9.4ZM200.98-10.05Q204.03-5.4 207.73-0.9L207.73-0.9 207.68-0.4Q205.58 0.25 204.23 0.35L204.23 0.35 203.58-0.05Q199.78-5.8 197.83-9.1L197.83-9.1 193.13-9.05 193.13-7.8 193.23 0 189.53 0 189.68-7.5 189.53-24.9 198.03-24.95Q201.98-24.95 204.11-23.1 206.23-21.25 206.23-17.75L206.23-17.75Q206.23-15.2 204.86-13.2 203.48-11.2 200.98-10.05L200.98-10.05ZM193.23-21.9L193.18-12.15 197.88-12Q202.33-13.25 202.33-17.45L202.33-17.45Q202.33-19.65 201.03-20.75 199.73-21.85 197.08-21.95L197.08-21.95 193.23-21.9ZM224.08-25.1Q229.78-25.1 232.81-22.05 235.83-19 235.83-13.3L235.83-13.3Q235.83-6.75 232.53-3.25 229.23 0.25 223.08 0.25L223.08 0.25Q221.33 0.25 218.91 0.18 216.48 0.1 214.33 0L214.33 0 214.48-7.5 214.33-24.9 224.08-25.1ZM223.68-2.8Q227.68-2.8 229.86-5.23 232.03-7.65 232.03-12.55L232.03-12.55Q232.03-17.35 229.98-19.65 227.93-21.95 223.78-21.95L223.78-21.95Q221.33-21.95 218.03-21.75L218.03-21.75 217.93-7.8 217.98-3.1Q219.43-3 221.03-2.9 222.63-2.8 223.68-2.8L223.68-2.8Z" opacity="1" transform="matrix(1,0,0,1,0,0)" fill="#000000" class="undefined-text-0" data-fill-palette-color="primary" id="text-0"></path></svg></g></svg></g></svg></g></svg></g></svg></g></svg></g></svg></g><path d="M179.27 100.367L179.27 37.039 6.148 37.039 6.148 210.161 179.27 210.161 179.27 146.833 176.162 146.833 176.162 207.053 9.256 207.053 9.256 40.147 176.162 40.147 176.162 100.367Z" fill="#000000" stroke="transparent" data-fill-palette-color="primary"></path></svg></g><defs></defs></svg><rect width="395.52" height="247.2" fill="none" stroke="none" visibility="hidden"></rect></g></svg></g></svg>